<svg width="31" height="30" fill="none" xmlns="http://www.w3.org/2000/svg"><path d="M16.785 2.5c1.407.004 2.12.011 2.736.029l.243.009c.28.01.556.022.89.037 1.33.063 2.238.272 3.034.581a6.1 6.1 0 012.215 1.442 6.134 6.134 0 011.441 2.215c.309.796.519 1.703.581 3.035.015.332.028.608.038.89l.007.242c.019.615.027 1.329.029 2.735l.001.933v1.637c.003.912-.006 1.823-.029 2.735l-.007.242c-.01.282-.022.558-.037.89-.063 1.332-.276 2.238-.583 3.035a6.104 6.104 0 01-1.441 2.215 6.143 6.143 0 01-2.215 1.442c-.796.308-1.704.518-3.034.581a88.24 88.24 0 01-.89.037l-.242.008c-.617.018-1.33.026-2.737.029l-.932.001h-1.636a97.883 97.883 0 01-2.737-.029l-.242-.007a80.133 80.133 0 01-.89-.039c-1.33-.063-2.238-.273-3.035-.581a6.111 6.111 0 01-2.214-1.442 6.13 6.13 0 01-1.443-2.215c-.308-.796-.518-1.703-.58-3.035a93.08 93.08 0 01-.038-.89l-.007-.242a98.838 98.838 0 01-.03-2.735v-2.57a95.92 95.92 0 01.027-2.735l.008-.242c.01-.282.023-.558.038-.89.062-1.332.272-2.238.581-3.036A6.1 6.1 0 015.1 4.598a6.121 6.121 0 012.213-1.44c.797-.31 1.703-.52 3.035-.582.332-.015.61-.028.89-.038l.242-.007a98.762 98.762 0 012.735-.029l2.57-.001zM15.5 8.75a6.25 6.25 0 100 12.5 6.25 6.25 0 000-12.5zm0 2.5a3.749 3.749 0 110 7.498 3.749 3.749 0 01.002-7.498m6.562-4.375a1.563 1.563 0 100 3.125 1.563 1.563 0 000-3.125z" fill="#FFFFF9"/></svg>