<svg width="31" height="30" fill="none" xmlns="http://www.w3.org/2000/svg"><path fill-rule="evenodd" clip-rule="evenodd" d="M9.236 6.112a80.31 80.31 0 0112.528 0l2.8.22a3.406 3.406 0 013.095 2.835 35.338 35.338 0 010 11.665 3.406 3.406 0 01-3.094 2.835l-2.8.22c-4.17.325-8.359.325-12.529 0l-2.8-.22a3.406 3.406 0 01-3.095-2.835 35.393 35.393 0 010-11.665 3.406 3.406 0 013.094-2.835l2.801-.22zM13 18.087v-6.175a.375.375 0 01.568-.32l5.146 3.087a.375.375 0 010 .642l-5.146 3.088a.375.375 0 01-.568-.322z" fill="#FFFFF9"/></svg>